<svg xmlns="http://www.w3.org/2000/svg" viewBox="0 0 256 256" width="256" height="256">
  <rect width="256" height="256" rx="48" fill="#1a1a2e"/>
  <rect x="44" y="68" width="168" height="112" rx="4" fill="rgba(255,90,54,0.08)"/>

  <path d="M44 88 L44 68 L64 68" fill="none" stroke="#ff5a36" stroke-width="9" stroke-linecap="round" stroke-linejoin="round"/>
  <path d="M192 68 L212 68 L212 88" fill="none" stroke="#ff5a36" stroke-width="9" stroke-linecap="round" stroke-linejoin="round"/>
  <path d="M44 160 L44 180 L64 180" fill="none" stroke="#ff5a36" stroke-width="9" stroke-linecap="round" stroke-linejoin="round"/>
  <path d="M192 180 L212 180 L212 160" fill="none" stroke="#ff5a36" stroke-width="9" stroke-linecap="round" stroke-linejoin="round"/>

  <circle cx="44"  cy="68"  r="6" fill="white" stroke="#ff5a36" stroke-width="3"/>
  <circle cx="212" cy="68"  r="6" fill="white" stroke="#ff5a36" stroke-width="3"/>
  <circle cx="44"  cy="180" r="6" fill="white" stroke="#ff5a36" stroke-width="3"/>
  <circle cx="212" cy="180" r="6" fill="white" stroke="#ff5a36" stroke-width="3"/>
  <circle cx="128" cy="68"  r="6" fill="white" stroke="#ff5a36" stroke-width="3"/>
  <circle cx="128" cy="180" r="6" fill="white" stroke="#ff5a36" stroke-width="3"/>
  <circle cx="44"  cy="124" r="6" fill="white" stroke="#ff5a36" stroke-width="3"/>
  <circle cx="212" cy="124" r="6" fill="white" stroke="#ff5a36" stroke-width="3"/>

  <line x1="128" y1="100" x2="128" y2="148" stroke="#ff5a36" stroke-width="5.5" stroke-linecap="round"/>
  <line x1="104" y1="124" x2="152" y2="124" stroke="#ff5a36" stroke-width="5.5" stroke-linecap="round"/>
  <circle cx="128" cy="124" r="8" fill="#ff5a36"/>
  <circle cx="128" cy="124" r="4" fill="#1a1a2e"/>

  <rect x="64" y="196" width="128" height="34" rx="7" fill="#ff5a36"/>
  <text x="128" y="219" text-anchor="middle"
        font-family="system-ui, -apple-system, sans-serif"
        font-size="18" font-weight="700" fill="white" letter-spacing="0.5">InetShot</text>
</svg>
